# WaveFront *.obj file (generated by CINEMA 4D)

mtllib ./Level1.mtl

v -1000 -10 -1000
v -1000 -0.00000000001868 -1000
v 1000 -10 -1000
v 1000 -0.00000000001868 -1000
v 1000 -10 1000
v 1000 -0.00000000001868 1000
v -1000 -10 1000
v -1000 -0.00000000001868 1000
# 8 vertices

vn 0 0 -1
vn 1 0 0
vn 0 0 1
vn -1 0 0
vn 0 1 0
vn 0 -1 0
# 6 normals

vt 0 0 0
vt 0 1 0
vt 1 1 0
vt 1 0 0
# 4 texture coordinates

o Würfel.7
usemtl Mat
f 1/1/1 2/2/1 4/3/1 3/4/1
f 3/1/2 4/2/2 6/3/2 5/4/2
f 5/1/3 6/2/3 8/3/3 7/4/3
f 7/1/4 8/2/4 2/3/4 1/4/4
f 2/1/5 8/2/5 6/3/5 4/4/5
f 7/1/6 1/2/6 3/3/6 5/4/6

v -1000 995 -1000
v -1000 1005 -1000
v 1000 995 -1000
v 1000 1005 -1000
v 1000 995 1000
v 1000 1005 1000
v -1000 995 1000
v -1000 1005 1000
# 8 vertices

vn 0 1 0
# 1 normal

# 0 texture coordinate

o Würfel.6
usemtl Mat
f 9/1/1 10/2/1 12/3/1 11/4/1
f 11/1/2 12/2/2 14/3/2 13/4/2
f 13/1/3 14/2/3 16/3/3 15/4/3
f 15/1/4 16/2/4 10/3/4 9/4/4
f 10/1/7 16/2/7 14/3/7 12/4/7
f 15/1/6 9/2/6 11/3/6 13/4/6

v -348.54779052734375 497.35476684570312 551.08721923828125
v -348.54779052734375 497.35476684570312 999.86846923828125
v -348.54779052734375 487.35476684570312 551.08721923828125
v -348.54779052734375 487.35476684570312 999.86846923828125
v -1000 487.35476684570312 551.08721923828125
v -1000 487.35476684570312 999.86846923828125
v -1000 497.35476684570312 551.08721923828125
v -1000 497.35476684570312 999.86846923828125
# 8 vertices

# 0 normal

# 0 texture coordinate

o Würfel.5
usemtl Über
f 17/1/2 18/2/2 20/3/2 19/4/2
f 19/1/6 20/2/6 22/3/6 21/4/6
f 21/1/4 22/2/4 24/3/4 23/4/4
f 23/1/7 24/2/7 18/3/7 17/4/7
f 18/1/3 24/2/3 22/3/3 20/4/3
f 23/1/1 17/2/1 19/3/1 21/4/1

v 1005 236.79205322265625 -1000
v 1005 236.79205322265625 -458.22491455078125
v 1005 226.79205322265625 -1000
v 1005 226.79205322265625 -458.22491455078125
v 575.43511962890625 226.79205322265625 -1000
v 575.43511962890625 226.79205322265625 -458.22491455078125
v 575.43511962890625 236.79205322265625 -1000
v 575.43511962890625 236.79205322265625 -458.22491455078125
# 8 vertices

# 0 normal

# 0 texture coordinate

o Würfel.4
usemtl Über.1
f 25/1/2 26/2/2 28/3/2 27/4/2
f 27/1/6 28/2/6 30/3/6 29/4/6
f 29/1/4 30/2/4 32/3/4 31/4/4
f 31/1/7 32/2/7 26/3/7 25/4/7
f 26/1/3 32/2/3 30/3/3 28/4/3
f 31/1/1 25/2/1 27/3/1 29/4/1

v 1000 0 -1005
v 1000 1000 -1005
v 1000 0 -995
v 1000 1000 -995
v -1000 0 -995
v -1000 1000 -995
v -1000 0 -1005
v -1000 1000 -1005
# 8 vertices

# 0 normal

# 0 texture coordinate

o Würfel.3
usemtl Mat.1
f 33/1/2 34/2/2 36/3/2 35/4/2
f 35/1/3 36/2/3 38/3/3 37/4/3
f 37/1/4 38/2/4 40/3/4 39/4/4
f 39/1/1 40/2/1 34/3/1 33/4/1
f 34/1/7 40/2/7 38/3/7 36/4/7
f 39/1/6 33/2/6 35/3/6 37/4/6

v 1000 0 995
v 1000 1000 995
v 1000 0 1005
v 1000 1000 1005
v -1000 0 1005
v -1000 1000 1005
v -1000 0 995
v -1000 1000 995
# 8 vertices

# 0 normal

# 0 texture coordinate

o Würfel.2
usemtl Mat.1
f 41/1/2 42/2/2 44/3/2 43/4/2
f 43/1/3 44/2/3 46/3/3 45/4/3
f 45/1/4 46/2/4 48/3/4 47/4/4
f 47/1/1 48/2/1 42/3/1 41/4/1
f 42/1/7 48/2/7 46/3/7 44/4/7
f 47/1/6 41/2/6 43/3/6 45/4/6

v 995 0 -1000
v 995 1000 -1000
v 1005 0 -1000
v 1005 1000 -1000
v 1005 0 1000
v 1005 1000 1000
v 995 0 1000
v 995 1000 1000
# 8 vertices

# 0 normal

# 0 texture coordinate

o Würfel.1
usemtl Mat.1
f 49/1/1 50/2/1 52/3/1 51/4/1
f 51/1/2 52/2/2 54/3/2 53/4/2
f 53/1/3 54/2/3 56/3/3 55/4/3
f 55/1/4 56/2/4 50/3/4 49/4/4
f 50/1/7 56/2/7 54/3/7 52/4/7
f 55/1/6 49/2/6 51/3/6 53/4/6

v -1005 0 -1000
v -1005 1000 -1000
v -995 0 -1000
v -995 1000 -1000
v -995 0 1000
v -995 1000 1000
v -1005 0 1000
v -1005 1000 1000
# 8 vertices

# 0 normal

# 0 texture coordinate

o Würfel
usemtl Mat.1
f 57/1/1 58/2/1 60/3/1 59/4/1
f 59/1/2 60/2/2 62/3/2 61/4/2
f 61/1/3 62/2/3 64/3/3 63/4/3
f 63/1/4 64/2/4 58/3/4 57/4/4
f 58/1/7 64/2/7 62/3/7 60/4/7
f 63/1/6 57/2/6 59/3/6 61/4/6

